<svg width="269" height="328" viewBox="0 0 269 328" fill="none" xmlns="http://www.w3.org/2000/svg">
<path d="M153.611 198.482C134.656 203.968 116.804 216.341 107.361 233.972C105.737 228.698 104.416 223.335 103.402 217.909C102.923 215.381 102.119 211.976 100.731 208.968C106.538 202.377 113.237 196.63 120.634 191.894C132.09 192.201 143.296 194.334 153.608 198.482H153.611ZM200.758 296.4C196.512 298.282 192.705 301.032 189.584 304.474C182.394 303.462 175.314 301.778 168.437 299.446C178.01 283.438 192.37 277.214 203.097 274.831C203.07 282.082 202.287 289.31 200.758 296.397V296.4ZM201.527 257.497C182.141 261.611 164.462 276.606 154.58 293.502C148.699 290.432 143.174 286.723 138.105 282.442C150.645 261.64 171.752 244.279 195.572 238.532C198.308 244.593 200.308 250.96 201.529 257.497H201.527ZM187.6 224.82C160.707 229.13 138.105 246.132 126.725 270.9C121.922 265.027 117.805 258.626 114.454 251.819C127.344 230.785 147.557 215.267 171.199 208.252C177.07 212.586 182.284 217.748 186.676 223.577C186.99 223.992 187.296 224.408 187.6 224.827V224.82Z" fill="#EDA73E"/>
<path d="M98.9981 218.747C109.445 273.919 145.138 307.032 201.608 310.149C223.305 245.85 184.367 184.308 112.599 187.498C100.427 188.039 95.2885 183.971 101.092 177.587C111.096 166.571 132.293 163.959 146.131 161.71C183.871 155.575 215.987 146.332 238.144 112.523C287.924 36.5731 145.55 -37.8871 114.073 88.9599C105.977 121.596 101.214 178.31 64.8268 192.871C40.231 202.713 10.09 189.229 7.99346 156.773C6.47133 133.191 22.9012 111.634 50.6729 111.994C41.363 99.8601 27.616 90.7391 6.15781 87.4489C-3.30284 85.9978 -0.572106 81.0721 5.71266 80.2651C35.454 76.4696 66.5452 98.9526 78.3201 126.831C82.786 137.391 70.0944 144.378 63.0175 134.493C52.901 120.353 24.1625 131.62 24.2104 153.959C24.2582 176.049 45.2449 186.803 61.7418 176.732C86.5051 161.6 91.6052 110.844 98.0168 85.0088C124.872 -23.6177 221.644 -14.2212 255.818 36.0511C271.374 58.9459 270.896 84.9274 260.87 107.789C243.076 148.411 200.514 174.567 156.846 176.722C221.07 198.257 238.773 269.712 212.823 327.012C146.639 325.726 99.0196 296.452 86.0696 229.164C82.3695 209.923 94.4867 194.921 98.9933 218.74L98.9981 218.747Z" fill="black"/>
</svg>
