<svg width="92" height="56" viewBox="0 0 92 56" fill="none" xmlns="http://www.w3.org/2000/svg">
<g clip-path="url(#clip0_319_7)">
<g opacity="0.3">
<mask id="mask0_319_7" style="mask-type:alpha" maskUnits="userSpaceOnUse" x="0" y="0" width="92" height="56">
<g opacity="0.3">
<path d="M91.5 0H0.5V56H91.5V0Z" fill="#C4C4C4"/>
</g>
</mask>
<g mask="url(#mask0_319_7)">
<path d="M8.38495 -96.6493L7.79761 -97.2367L-483.76 814.313L-483.172 814.9L8.38495 -96.6493Z" fill="black"/>
<path d="M11.7409 -93.2932L11.1536 -93.8806L-480.404 817.669L-479.816 818.256L11.7409 -93.2932Z" fill="black"/>
<path d="M15.0954 -89.937L14.5081 -90.5244L-477.049 821.025L-476.462 821.613L15.0954 -89.937Z" fill="black"/>
<path d="M18.4518 -86.5811L17.8645 -87.1685L-473.693 824.381L-473.105 824.969L18.4518 -86.5811Z" fill="black"/>
<path d="M1.67109 -103.362L1.08374 -103.949L-490.473 807.601L-489.886 808.188L1.67109 -103.362Z" fill="black"/>
<path d="M21.81 -83.2241L21.2227 -83.8115L-470.335 827.738L-469.747 828.326L21.81 -83.2241Z" fill="black"/>
<path d="M5.02656 -100.006L4.43921 -100.593L-487.118 810.957L-486.531 811.544L5.02656 -100.006Z" fill="black"/>
<path d="M25.1657 -79.8679L24.5784 -80.4553L-466.979 831.094L-466.391 831.682L25.1657 -79.8679Z" fill="black"/>
<path d="M28.5215 -76.5118L27.9341 -77.0992L-463.623 834.45L-463.036 835.038L28.5215 -76.5118Z" fill="black"/>
<path d="M48.6579 -56.3745L48.0706 -56.9619L-443.487 854.588L-442.899 855.175L48.6579 -56.3745Z" fill="black"/>
<path d="M31.8771 -73.1558L31.2898 -73.7432L-460.267 837.806L-459.68 838.394L31.8771 -73.1558Z" fill="black"/>
<path d="M52.0143 -53.0182L51.427 -53.6056L-440.13 857.944L-439.543 858.531L52.0143 -53.0182Z" fill="black"/>
<path d="M35.2333 -69.7994L34.646 -70.3868L-456.911 841.163L-456.324 841.75L35.2333 -69.7994Z" fill="black"/>
<path d="M55.3725 -49.6614L54.7852 -50.2488L-436.772 861.301L-436.185 861.888L55.3725 -49.6614Z" fill="black"/>
<path d="M38.591 -66.4429L38.0037 -67.0303L-453.554 844.519L-452.966 845.107L38.591 -66.4429Z" fill="black"/>
<path d="M58.7279 -46.3054L58.1406 -46.8927L-433.417 864.657L-432.829 865.244L58.7279 -46.3054Z" fill="black"/>
<path d="M41.9468 -63.0867L41.3594 -63.6741L-450.198 847.876L-449.61 848.463L41.9468 -63.0867Z" fill="black"/>
<path d="M62.0837 -42.9492L61.4963 -43.5366L-430.061 868.013L-429.474 868.6L62.0837 -42.9492Z" fill="black"/>
<path d="M45.3031 -59.7307L44.7158 -60.3181L-446.841 851.232L-446.254 851.819L45.3031 -59.7307Z" fill="black"/>
<path d="M65.4394 -39.593L64.8521 -40.1803L-426.705 871.369L-426.118 871.957L65.4394 -39.593Z" fill="black"/>
<path d="M68.797 -36.2363L68.2097 -36.8237L-423.348 874.726L-422.76 875.313L68.797 -36.2363Z" fill="black"/>
<path d="M88.9347 -16.0991L88.3474 -16.6865L-403.21 894.863L-402.622 895.451L88.9347 -16.0991Z" fill="black"/>
<path d="M72.1535 -32.8803L71.5662 -33.4677L-419.991 878.082L-419.404 878.669L72.1535 -32.8803Z" fill="black"/>
<path d="M92.2904 -12.7429L91.7031 -13.3303L-399.854 898.219L-399.267 898.807L92.2904 -12.7429Z" fill="black"/>
<path d="M75.5089 -29.5241L74.9216 -30.1115L-416.636 881.438L-416.048 882.026L75.5089 -29.5241Z" fill="black"/>
<path d="M95.6466 -9.38677L95.0593 -9.97412L-396.498 901.576L-395.911 902.163L95.6466 -9.38677Z" fill="black"/>
<path d="M78.8655 -26.1678L78.2781 -26.7552L-413.279 884.794L-412.692 885.382L78.8655 -26.1678Z" fill="black"/>
<path d="M99.0038 -6.02996L98.4165 -6.61731L-393.141 904.932L-392.553 905.52L99.0038 -6.02996Z" fill="black"/>
<path d="M82.2206 -22.8118L81.6333 -23.3992L-409.924 888.15L-409.337 888.738L82.2206 -22.8118Z" fill="black"/>
<path d="M102.359 -2.67376L101.772 -3.26111L-389.785 908.289L-389.198 908.876L102.359 -2.67376Z" fill="black"/>
<path d="M85.579 -19.4554L84.9917 -20.0428L-406.566 891.507L-405.978 892.094L85.579 -19.4554Z" fill="black"/>
<path d="M105.715 0.682196L105.128 0.0948486L-386.429 911.644L-385.842 912.232L105.715 0.682196Z" fill="black"/>
<path d="M109.071 4.03852L108.484 3.45117L-383.073 915.001L-382.486 915.588L109.071 4.03852Z" fill="black"/>
<path d="M129.208 24.176L128.621 23.5886L-362.936 935.138L-362.349 935.726L129.208 24.176Z" fill="black"/>
<path d="M112.427 7.3946L111.84 6.80725L-379.717 918.357L-379.13 918.944L112.427 7.3946Z" fill="black"/>
<path d="M132.566 27.5327L131.979 26.9453L-359.578 938.495L-358.991 939.082L132.566 27.5327Z" fill="black"/>
<path d="M115.785 10.7513L115.198 10.1639L-376.359 921.714L-375.772 922.301L115.785 10.7513Z" fill="black"/>
<path d="M135.922 30.889L135.335 30.3016L-356.222 941.851L-355.635 942.439L135.922 30.889Z" fill="black"/>
<path d="M119.141 14.1074L118.554 13.52L-373.003 925.07L-372.416 925.657L119.141 14.1074Z" fill="black"/>
<path d="M139.278 34.2451L138.691 33.6577L-352.866 945.207L-352.279 945.795L139.278 34.2451Z" fill="black"/>
<path d="M122.497 17.4634L121.91 16.8761L-369.647 928.426L-369.06 929.013L122.497 17.4634Z" fill="black"/>
<path d="M142.634 37.6011L142.047 37.0138L-349.51 948.563L-348.923 949.151L142.634 37.6011Z" fill="black"/>
<path d="M125.852 20.8196L125.265 20.2323L-366.292 931.782L-365.705 932.369L125.852 20.8196Z" fill="black"/>
<path d="M145.992 40.9576L145.405 40.3702L-346.152 951.92L-345.565 952.507L145.992 40.9576Z" fill="black"/>
</g>
</g>
</g>
<defs>
<clipPath id="clip0_319_7">
<rect width="91" height="56" fill="white" transform="translate(0.5)"/>
</clipPath>
</defs>
</svg>
