<svg width="70" height="80" viewBox="0 0 70 80" fill="none" xmlns="http://www.w3.org/2000/svg">
<path d="M0.5 65.9282C17.7263 44.267 36.8532 25.6153 59.0264 8.85887C62.3006 6.38451 71.3896 -1.57735 69.1489 1.83868C66.3798 6.06037 63.1547 10.0157 60.3761 14.245C47.983 33.1086 37.2657 53.2544 26.6344 73.1299C26.2478 73.8527 22.7666 79.7749 26.5117 76.761C30.902 73.228 34.8348 69.0778 38.9655 65.2624C43.4866 61.0864 48.0849 56.9974 52.5235 52.735C53.0438 52.2354 54.6205 50.9151 54.3639 51.5852C51.9157 57.978 48.9063 64.2036 46.1432 70.4671C44.9865 73.089 43.5601 75.9084 42.8304 78.6976C42.4944 79.9822 44.7256 76.8136 45.7138 75.9138C49.4022 72.5551 53.1945 69.2188 57.37 66.4728" stroke="black" stroke-linecap="round"/>
</svg>
