<svg width="82" height="94" viewBox="0 0 82 94" fill="none" xmlns="http://www.w3.org/2000/svg">
<path d="M0.5 77.7899C20.7222 52.1715 43.1755 30.1122 69.2049 10.2945C73.0485 7.3681 83.7182 -2.04834 81.0878 1.99178C77.8371 6.98473 74.0511 11.6627 70.7893 16.6647C56.2409 38.9745 43.6597 62.8007 31.1795 86.3074C30.7257 87.1623 26.6391 94.1664 31.0355 90.6019C36.1892 86.4233 40.8061 81.515 45.6551 77.0026C50.9625 72.0636 56.3605 67.2275 61.571 62.1865C62.1818 61.5956 64.0328 60.034 63.7315 60.8266C60.8576 68.3874 57.3248 75.7504 54.0812 83.1581C52.7233 86.259 51.0488 89.5934 50.1922 92.8923C49.7977 94.4116 52.417 90.6641 53.577 89.5998C57.9069 85.6276 62.3588 81.6818 67.2604 78.4341" stroke="black" stroke-linecap="round"/>
</svg>
