<svg width="1017" height="189" viewBox="0 0 1017 189" fill="none" xmlns="http://www.w3.org/2000/svg">
<path d="M233.5 108.188L280.812 54.375L294.812 56.1875L265.5 89.625L296.062 143.5L281.375 145.688L257.25 98.9375L233.875 125.688L234.375 144.25L220.438 144.5L219 55.9375L232.188 54.9375L233.5 108.188ZM353.938 148.5L353.688 130.562C352.312 133.021 350.75 135.354 349 137.562C347.25 139.729 345.354 141.646 343.312 143.312C341.271 144.938 339.083 146.229 336.75 147.188C334.458 148.146 332.042 148.583 329.5 148.5C325.75 148.375 322.521 147.667 319.812 146.375C317.146 145.083 314.896 143.375 313.062 141.25C311.229 139.083 309.75 136.604 308.625 133.812C307.542 130.979 306.708 128 306.125 124.875C305.542 121.75 305.146 118.562 304.938 115.312C304.771 112.021 304.688 108.833 304.688 105.75C304.688 101.417 304.875 97.0417 305.25 92.625C305.625 88.1667 306.167 83.625 306.875 79L319.688 79.375C319.021 84.5417 318.562 89.1875 318.312 93.3125C318.104 97.4375 318 101.062 318 104.188C318 105.604 318.021 107.396 318.062 109.562C318.104 111.729 318.25 114.042 318.5 116.5C318.792 118.917 319.229 121.312 319.812 123.688C320.396 126.062 321.208 128.188 322.25 130.062C323.333 131.896 324.688 133.312 326.312 134.312C327.938 135.312 329.938 135.646 332.312 135.312C335.521 134.854 338.854 132.646 342.312 128.688C345.812 124.729 349.479 118.646 353.312 110.438C353.188 103.812 353.062 98.5208 352.938 94.5625C352.854 90.6042 352.792 87.5833 352.75 85.5C352.667 83.0417 352.604 81.3333 352.562 80.375L366 78.875C366.25 86.0417 366.458 92.5208 366.625 98.3125C366.833 104.062 367.021 109.25 367.188 113.875C367.354 118.458 367.479 122.5 367.562 126C367.688 129.458 367.792 132.458 367.875 135C368.042 140.958 368.146 145.375 368.188 148.25L353.938 148.5ZM432.938 108.812C432.896 106.771 432.708 105 432.375 103.5C432.083 102 431.688 100.708 431.188 99.625C430.729 98.5417 430.188 97.6458 429.562 96.9375C428.979 96.2292 428.375 95.6458 427.75 95.1875C426.292 94.1458 424.646 93.6458 422.812 93.6875C421.646 93.8542 420.396 94.3542 419.062 95.1875C417.771 95.9792 416.438 97.0208 415.062 98.3125C413.688 99.5625 412.292 101 410.875 102.625C409.5 104.208 408.167 105.854 406.875 107.562C405.583 109.229 404.354 110.896 403.188 112.562C402.021 114.229 400.979 115.75 400.062 117.125C400.104 120.25 400.167 123.333 400.25 126.375C400.333 129.375 400.396 132.188 400.438 134.812C400.521 137.396 400.604 139.75 400.688 141.875C400.812 143.958 400.938 145.646 401.062 146.938L387.625 148.625C387.375 141.458 387.146 134.979 386.938 129.188C386.729 123.354 386.542 118.146 386.375 113.562C386.208 108.979 386.062 104.938 385.938 101.438C385.854 97.9375 385.771 94.9167 385.688 92.375C385.521 86.4167 385.396 82 385.312 79.125L399.562 78.875C399.604 81.4167 399.625 84.0208 399.625 86.6875C399.667 89.3125 399.708 91.7292 399.75 93.9375C399.792 96.5208 399.812 99.0417 399.812 101.5C401.021 99.5833 402.479 97.4792 404.188 95.1875C405.938 92.8958 407.896 90.7292 410.062 88.6875C412.271 86.6458 414.667 84.875 417.25 83.375C419.875 81.8333 422.667 80.875 425.625 80.5C428.958 80.3333 432 81.0417 434.75 82.625C435.917 83.2917 437.062 84.1875 438.188 85.3125C439.354 86.3958 440.417 87.8125 441.375 89.5625C442.375 91.2708 443.208 93.3333 443.875 95.75C444.542 98.125 445 100.938 445.25 104.188L432.938 108.812ZM503.688 148.5L503.438 130.562C502.062 133.021 500.5 135.354 498.75 137.562C497 139.729 495.104 141.646 493.062 143.312C491.021 144.938 488.833 146.229 486.5 147.188C484.208 148.146 481.792 148.583 479.25 148.5C475.5 148.375 472.271 147.667 469.562 146.375C466.896 145.083 464.646 143.375 462.812 141.25C460.979 139.083 459.5 136.604 458.375 133.812C457.292 130.979 456.458 128 455.875 124.875C455.292 121.75 454.896 118.562 454.688 115.312C454.521 112.021 454.438 108.833 454.438 105.75C454.438 101.417 454.625 97.0417 455 92.625C455.375 88.1667 455.917 83.625 456.625 79L469.438 79.375C468.771 84.5417 468.312 89.1875 468.062 93.3125C467.854 97.4375 467.75 101.062 467.75 104.188C467.75 105.604 467.771 107.396 467.812 109.562C467.854 111.729 468 114.042 468.25 116.5C468.542 118.917 468.979 121.312 469.562 123.688C470.146 126.062 470.958 128.188 472 130.062C473.083 131.896 474.438 133.312 476.062 134.312C477.688 135.312 479.688 135.646 482.062 135.312C485.271 134.854 488.604 132.646 492.062 128.688C495.562 124.729 499.229 118.646 503.062 110.438C502.938 103.812 502.812 98.5208 502.688 94.5625C502.604 90.6042 502.542 87.5833 502.5 85.5C502.417 83.0417 502.354 81.3333 502.312 80.375L515.75 78.875C516 86.0417 516.208 92.5208 516.375 98.3125C516.583 104.062 516.771 109.25 516.938 113.875C517.104 118.458 517.229 122.5 517.312 126C517.438 129.458 517.542 132.458 517.625 135C517.792 140.958 517.896 145.375 517.938 148.25L503.688 148.5ZM601.625 54.375L601.375 146.562H588.562L588.688 138.625C587.438 139.792 586.146 140.812 584.812 141.688C583.521 142.562 582.208 143.333 580.875 144C579.583 144.625 578.312 145.146 577.062 145.562C575.812 146.021 574.625 146.396 573.5 146.688C570.875 147.354 568.271 147.729 565.688 147.812C560.854 147.812 556.354 146.958 552.188 145.25C548.021 143.583 544.396 141.188 541.312 138.062C538.229 134.896 535.792 131.062 534 126.562C532.25 122.062 531.375 117 531.375 111.375C531.375 105.708 532.354 100.667 534.312 96.25C536.271 91.7917 538.833 88.0417 542 85C545.208 81.9583 548.812 79.6458 552.812 78.0625C556.854 76.4375 560.917 75.625 565 75.625C567.792 75.6667 570.625 76.0417 573.5 76.75C575.958 77.3333 578.604 78.3125 581.438 79.6875C584.271 81.0208 586.917 82.9583 589.375 85.5L589.875 53.5L601.625 54.375ZM565.688 136.312C568.271 136.312 570.792 135.896 573.25 135.062C575.708 134.229 577.958 133.062 580 131.562C582.083 130.021 583.896 128.188 585.438 126.062C586.979 123.938 588.146 121.604 588.938 119.062L589.062 105.75C588.312 103.083 587.146 100.646 585.562 98.4375C583.979 96.1875 582.125 94.2708 580 92.6875C577.875 91.1042 575.542 89.875 573 89C570.5 88.125 567.938 87.6875 565.312 87.6875C562.229 87.6875 559.396 88.3333 556.812 89.625C554.229 90.875 552 92.6042 550.125 94.8125C548.25 97.0208 546.792 99.625 545.75 102.625C544.708 105.625 544.188 108.875 544.188 112.375C544.188 115.875 544.708 119.083 545.75 122C546.833 124.917 548.312 127.438 550.188 129.562C552.104 131.688 554.375 133.354 557 134.562C559.667 135.729 562.562 136.312 565.688 136.312ZM634.438 50.3125L634.062 88.3125C636.354 85.8125 638.792 83.8542 641.375 82.4375C643.958 80.9792 646.375 79.875 648.625 79.125C651.208 78.2917 653.771 77.7292 656.312 77.4375C660.979 77.4375 665.229 78.2708 669.062 79.9375C672.896 81.6042 676.188 84 678.938 87.125C681.688 90.25 683.854 94.0625 685.438 98.5625C687.062 103.021 687.979 108.062 688.188 113.688C688.188 116.646 688.146 119.667 688.062 122.75C688.021 125.833 687.875 128.854 687.625 131.812C687.417 134.771 687.104 137.583 686.688 140.25C686.312 142.917 685.792 145.312 685.125 147.438L670.875 146.438C672.083 142.438 672.938 138.542 673.438 134.75C673.979 130.958 674.354 127.562 674.562 124.562C674.771 121.062 674.833 117.729 674.75 114.562C674.542 110.104 673.771 106.312 672.438 103.188C671.104 100.062 669.458 97.5208 667.5 95.5625C665.583 93.5625 663.458 92.125 661.125 91.25C658.792 90.3333 656.5 89.875 654.25 89.875C651.875 90.0833 649.479 90.7708 647.062 91.9375C644.979 92.9375 642.75 94.5 640.375 96.625C638 98.7083 635.792 101.667 633.75 105.5L633.375 146.938L621.125 147.188L620.062 50.8125L634.438 50.3125ZM721.25 60.6875C721.25 61.8958 721 63.0417 720.5 64.125C720.042 65.2083 719.396 66.1458 718.562 66.9375C717.771 67.7292 716.833 68.3542 715.75 68.8125C714.667 69.2708 713.5 69.5 712.25 69.5C711.042 69.5 709.896 69.2708 708.812 68.8125C707.771 68.3542 706.833 67.7292 706 66.9375C705.208 66.1458 704.583 65.2083 704.125 64.125C703.667 63.0417 703.438 61.8958 703.438 60.6875C703.438 59.4375 703.667 58.2708 704.125 57.1875C704.583 56.1042 705.208 55.1667 706 54.375C706.833 53.5417 707.771 52.8958 708.812 52.4375C709.896 51.9375 711.042 51.6875 712.25 51.6875C713.5 51.6875 714.667 51.9375 715.75 52.4375C716.833 52.8958 717.771 53.5417 718.562 54.375C719.396 55.1667 720.042 56.1042 720.5 57.1875C721 58.2708 721.25 59.4375 721.25 60.6875ZM718.312 82.6875C718.188 88.6458 718.062 94.125 717.938 99.125C717.854 104.083 717.771 108.604 717.688 112.688C717.604 116.771 717.521 120.438 717.438 123.688C717.396 126.896 717.354 129.708 717.312 132.125C717.188 137.875 717.125 142.396 717.125 145.688H704.312C704.396 141.188 704.5 135.833 704.625 129.625C704.708 124.292 704.812 117.771 704.938 110.062C705.104 102.354 705.25 93.3958 705.375 83.1875L718.312 82.6875Z" fill="#FF0000"/>
<path d="M751.188 140.438C751.188 141.521 750.979 142.542 750.562 143.5C750.146 144.458 749.562 145.292 748.812 146C748.104 146.75 747.271 147.333 746.312 147.75C745.354 148.167 744.333 148.375 743.25 148.375C742.125 148.375 741.062 148.167 740.062 147.75C739.104 147.333 738.25 146.75 737.5 146C736.792 145.292 736.229 144.458 735.812 143.5C735.396 142.542 735.188 141.521 735.188 140.438C735.188 139.312 735.396 138.271 735.812 137.312C736.229 136.312 736.792 135.458 737.5 134.75C738.25 134 739.104 133.417 740.062 133C741.062 132.583 742.125 132.375 743.25 132.375C744.333 132.375 745.354 132.583 746.312 133C747.271 133.417 748.104 134 748.812 134.75C749.562 135.458 750.146 136.312 750.562 137.312C750.979 138.271 751.188 139.312 751.188 140.438ZM832.625 97.125L822.25 103.438L822.125 103.062C821.042 100.938 819.729 99.0417 818.188 97.375C816.646 95.6667 814.917 94.2292 813 93.0625C811.083 91.8542 809.021 90.9375 806.812 90.3125C804.646 89.6875 802.375 89.375 800 89.375C796.583 89.375 793.375 90.0208 790.375 91.3125C787.417 92.6042 784.812 94.375 782.562 96.625C780.354 98.875 778.604 101.521 777.312 104.562C776.021 107.562 775.375 110.771 775.375 114.188C775.375 117.562 776.021 120.75 777.312 123.75C778.604 126.75 780.354 129.375 782.562 131.625C784.812 133.875 787.417 135.646 790.375 136.938C793.375 138.229 796.583 138.875 800 138.875C802.208 138.875 804.354 138.583 806.438 138C808.521 137.417 810.479 136.604 812.312 135.562C814.188 134.479 815.896 133.188 817.438 131.688C818.979 130.146 820.292 128.438 821.375 126.562L821.625 126.188L832.5 132.375L832.375 132.75C830.75 135.458 828.771 137.896 826.438 140.062C824.104 142.229 821.521 144.083 818.688 145.625C815.896 147.208 812.896 148.417 809.688 149.25C806.521 150.083 803.292 150.5 800 150.5C795.292 150.5 790.729 149.583 786.312 147.75C781.938 145.917 778.021 143.375 774.562 140.125C771.146 136.875 768.396 133.042 766.312 128.625C764.271 124.208 763.25 119.396 763.25 114.188C763.25 111.062 763.667 108 764.5 105C765.375 101.958 766.583 99.0833 768.125 96.375C769.708 93.6667 771.604 91.1667 773.812 88.875C776.062 86.5833 778.542 84.625 781.25 83C783.958 81.3333 786.896 80.0417 790.062 79.125C793.229 78.1667 796.542 77.6875 800 77.6875C803.625 77.6875 807.062 78.125 810.312 79C813.604 79.875 816.646 81.1458 819.438 82.8125C822.229 84.4375 824.729 86.4375 826.938 88.8125C829.146 91.1875 831 93.875 832.5 96.875L832.625 97.125ZM907.812 113.688C907.812 118.938 906.938 123.792 905.188 128.25C903.438 132.708 901.042 136.583 898 139.875C894.958 143.167 891.396 145.729 887.312 147.562C883.229 149.438 878.875 150.375 874.25 150.375C869.625 150.375 865.292 149.5 861.25 147.75C857.208 146 853.667 143.521 850.625 140.312C847.625 137.062 845.25 133.188 843.5 128.688C841.75 124.188 840.875 119.188 840.875 113.688C840.875 108.146 841.75 103.125 843.5 98.625C845.25 94.0833 847.625 90.2083 850.625 87C853.667 83.7917 857.208 81.3125 861.25 79.5625C865.292 77.8125 869.625 76.9375 874.25 76.9375C878.875 76.9375 883.229 77.875 887.312 79.75C891.396 81.5833 894.958 84.1458 898 87.4375C901.042 90.6875 903.438 94.5625 905.188 99.0625C906.938 103.521 907.812 108.396 907.812 113.688ZM894.625 113.562C894.625 110.562 894.25 107.542 893.5 104.5C892.75 101.417 891.562 98.6667 889.938 96.25C888.312 93.7917 886.208 91.7917 883.625 90.25C881.042 88.7083 877.917 87.9375 874.25 87.9375C870.708 87.9375 867.667 88.7083 865.125 90.25C862.583 91.7917 860.5 93.7917 858.875 96.25C857.25 98.6667 856.062 101.417 855.312 104.5C854.562 107.542 854.188 110.562 854.188 113.562C854.188 116.562 854.583 119.583 855.375 122.625C856.208 125.667 857.458 128.417 859.125 130.875C860.792 133.292 862.875 135.271 865.375 136.812C867.917 138.354 870.875 139.125 874.25 139.125C877.792 139.125 880.833 138.354 883.375 136.812C885.958 135.271 888.083 133.292 889.75 130.875C891.417 128.417 892.646 125.667 893.438 122.625C894.229 119.583 894.625 116.562 894.625 113.562ZM934.75 95.625C936.083 93.9583 937.479 92.25 938.938 90.5C940.438 88.7083 942.042 87.0833 943.75 85.625C945.5 84.1667 947.375 82.9792 949.375 82.0625C951.417 81.1042 953.667 80.625 956.125 80.625C957.875 80.625 959.562 80.9167 961.188 81.5C962.812 82.0417 964.292 82.8958 965.625 84.0625C966.958 85.2292 968.083 86.7292 969 88.5625C969.917 90.3542 970.5 92.5 970.75 95C972.042 93.375 973.396 91.7292 974.812 90.0625C976.271 88.3542 977.833 86.8125 979.5 85.4375C981.208 84.0208 983.042 82.875 985 82C986.958 81.0833 989.125 80.625 991.5 80.625C993.333 80.625 995.125 80.9375 996.875 81.5625C998.625 82.1875 1000.17 83.1667 1001.5 84.5C1002.88 85.7917 1004 87.4792 1004.88 89.5625C1005.75 91.6042 1006.23 94.0417 1006.31 96.875C1006.56 99.9167 1006.79 103.75 1007 108.375C1007.21 112.333 1007.38 117.375 1007.5 123.5C1007.67 129.583 1007.75 136.896 1007.75 145.438L994.688 146.062C994.688 138.479 994.667 132 994.625 126.625C994.583 121.208 994.542 116.729 994.5 113.188C994.417 109.062 994.354 105.646 994.312 102.938C994.188 99.5208 993.625 96.9792 992.625 95.3125C991.667 93.6458 990.396 92.8125 988.812 92.8125C987.771 92.8125 986.708 93.125 985.625 93.75C984.583 94.375 983.521 95.1875 982.438 96.1875C981.396 97.1875 980.354 98.3333 979.312 99.625C978.312 100.917 977.354 102.229 976.438 103.562C975.521 104.896 974.646 106.188 973.812 107.438C972.979 108.688 972.25 109.792 971.625 110.75C971.708 112.583 971.792 114.604 971.875 116.812C971.958 119.021 972.021 121.521 972.062 124.312C972.146 127.104 972.188 130.229 972.188 133.688C972.229 137.146 972.25 141.062 972.25 145.438L960.125 146.062C960.125 138.479 960.042 132 959.875 126.625C959.75 121.208 959.604 116.729 959.438 113.188C959.271 109.062 959.062 105.646 958.812 102.938C958.688 99.5208 958.125 96.9792 957.125 95.3125C956.167 93.6458 954.896 92.8125 953.312 92.8125C952.229 92.8125 951.125 93.1667 950 93.875C948.875 94.5833 947.729 95.5 946.562 96.625C945.438 97.75 944.333 99.0417 943.25 100.5C942.167 101.917 941.125 103.354 940.125 104.812C939.125 106.271 938.188 107.667 937.312 109C936.438 110.333 935.667 111.5 935 112.5L935.562 145.438L923.125 146.062L921.438 78.875L934.5 77.4375L934.75 95.625Z" fill="black"/>
<path d="M79.4518 0.0866089C79.4518 0.390633 80.1105 1.9614 80.9213 3.53218C83.1002 7.88982 85.8365 16.0477 86.4446 20.1013C87.5087 27.1445 85.8365 30.7928 79.5531 35.0997C74.7392 38.3933 67.8985 44.9298 64.9595 49.0341C57.1053 59.9788 56.0918 71.937 62.0711 83.2871C65.8209 90.4823 73.9792 96.7148 82.0361 98.6402C98.758 102.542 115.378 92.5091 119.736 75.8386C120.8 71.8357 120.8 61.5496 119.736 55.5705C117.152 41.0282 110.109 28.7153 96.427 14.9837C88.5728 7.12977 79.4518 -0.926796 79.4518 0.0866089ZM111.882 45.5378C114.213 52.1249 115.531 59.3201 115.48 65.4512C115.48 73.7105 113.504 79.4362 108.994 84.2499C106.004 87.4421 103.927 88.1515 101.393 86.8847C99.0113 85.7193 98.0992 84.0472 98.4032 81.4123C98.5553 79.9936 99.062 79.0815 99.9741 78.3721C105.801 73.9131 107.676 71.177 109.196 65.0965C110.261 60.5362 110.261 49.1861 109.146 42.5483C108.69 39.8121 108.335 37.4306 108.386 37.2279C108.436 36.5692 110.261 40.9775 111.882 45.5378Z" fill="#FF0000"/>
<path d="M149.38 89.6209C135.647 90.9383 123.739 94.6373 109.5 101.934C98.9606 107.355 97.1871 107.66 75.9047 107.913C56.1931 108.116 57.1559 107.862 57.1559 112.017C57.1559 119.162 65.0608 126.458 77.3235 130.613C84.1136 132.944 89.0795 133.451 97.8965 132.843C103.977 132.387 111.021 131.475 115.936 130.512C119.331 129.853 109.805 133.147 104.028 134.616C94.7548 136.998 87.914 137.91 79.1477 137.91C63.9967 137.91 52.7474 134.717 41.6502 127.269C37.191 124.279 28.6274 115.969 23.8135 109.94C16.3647 100.616 8.25707 96.5627 2.17638 99.0962C-0.103872 100.059 -0.559924 101.782 0.656213 105.177C6.12883 120.682 19.405 136.846 34.3533 146.27C48.947 155.492 68.2025 161.826 91.3598 165.12C99.366 166.234 120.344 166.386 126.83 165.373C144.718 162.535 158.45 157.671 167.115 151.135C172.486 147.081 182.215 136.744 186.066 130.917C195.035 117.439 195.542 106.95 187.587 99.4003C180.391 92.6105 163.416 88.2528 149.38 89.6209Z" fill="black"/>
<path d="M16.466 97.3734C15.4526 97.5761 14.4391 97.8294 14.3378 97.9815C14.1858 98.1335 14.9965 98.8428 16.1113 99.6029C19.5064 101.832 22.04 104.366 28.222 111.561C35.3162 119.871 38.1031 122.557 42.7143 125.85C45.9067 128.13 53.5582 132.336 54.4703 132.336C54.673 132.336 53.5075 131.17 51.9367 129.752C48.4403 126.61 45.3493 122.354 42.613 116.831C37.2417 106.038 30.8063 99.4002 23.9655 97.6268C20.7732 96.816 19.5064 96.7654 16.466 97.3734Z" fill="black"/>
<path d="M30.6036 98.3869C33.2385 99.8563 37.495 104.366 40.282 108.521C41.0928 109.788 43.373 113.74 45.2986 117.338C47.2241 120.935 49.7577 124.938 50.9739 126.205L53.1528 128.536L51.886 126.509C50.0111 123.469 47.6295 117.236 46.1093 111.156C44.3865 104.467 42.6636 101.326 39.5219 99.3496C36.5829 97.5255 34.404 96.8667 30.8063 96.8667H28.0193L30.6036 98.3869Z" fill="black"/>
</svg>
